<svg width="223" height="193" viewBox="0 0 223 193" fill="none" xmlns="http://www.w3.org/2000/svg">
<path d="M158.5 64.0006C158.5 64.829 157.828 65.5006 157 65.5006C156.172 65.5006 155.5 64.829 155.5 64.0006C155.5 63.1722 156.172 62.5006 157 62.5006C157.828 62.5006 158.5 63.1722 158.5 64.0006Z" fill="#9871F5" stroke="#9871F5"/>
<path d="M171.295 64C171.295 64.8284 170.624 65.5 169.795 65.5C168.967 65.5 168.295 64.8284 168.295 64C168.295 63.1716 168.967 62.5 169.795 62.5C170.624 62.5 171.295 63.1716 171.295 64Z" fill="#9871F5" stroke="#9871F5"/>
<path d="M184.081 64C184.081 64.8284 183.41 65.5 182.581 65.5C181.753 65.5 181.081 64.8284 181.081 64C181.081 63.1716 181.753 62.5 182.581 62.5C183.41 62.5 184.081 63.1716 184.081 64Z" fill="#9871F5" stroke="#9871F5"/>
<path d="M196.876 64C196.876 64.8284 196.205 65.5 195.376 65.5C194.548 65.5 193.876 64.8284 193.876 64C193.876 63.1716 194.548 62.5 195.376 62.5C196.205 62.5 196.876 63.1716 196.876 64Z" fill="#9871F5" stroke="#9871F5"/>
<path d="M209.662 64C209.662 64.8284 208.991 65.5 208.162 65.5C207.334 65.5 206.662 64.8284 206.662 64C206.662 63.1716 207.334 62.5 208.162 62.5C208.991 62.5 209.662 63.1716 209.662 64Z" fill="#9871F5" stroke="#9871F5"/>
<path d="M222.457 64C222.457 64.8284 221.786 65.5 220.957 65.5C220.129 65.5 219.457 64.8284 219.457 64C219.457 63.1716 220.129 62.5 220.957 62.5C221.786 62.5 222.457 63.1716 222.457 64Z" fill="#9871F5" stroke="#9871F5"/>
<path d="M158.5 74C158.5 74.8284 157.828 75.5 157 75.5C156.172 75.5 155.5 74.8284 155.5 74C155.5 73.1716 156.172 72.5 157 72.5C157.828 72.5 158.5 73.1716 158.5 74Z" fill="#9871F5" stroke="#9871F5"/>
<path d="M171.296 74C171.296 74.8284 170.624 75.5 169.796 75.5C168.967 75.5 168.296 74.8284 168.296 74C168.296 73.1716 168.967 72.5 169.796 72.5C170.624 72.5 171.296 73.1716 171.296 74Z" fill="#9871F5" stroke="#9871F5"/>
<path d="M184.081 74C184.081 74.8284 183.41 75.5 182.581 75.5C181.753 75.5 181.081 74.8284 181.081 74C181.081 73.1716 181.753 72.5 182.581 72.5C183.41 72.5 184.081 73.1716 184.081 74Z" fill="#9871F5" stroke="#9871F5"/>
<path d="M196.876 74C196.876 74.8284 196.205 75.5 195.376 75.5C194.548 75.5 193.876 74.8284 193.876 74C193.876 73.1716 194.548 72.5 195.376 72.5C196.205 72.5 196.876 73.1716 196.876 74Z" fill="#9871F5" stroke="#9871F5"/>
<path d="M209.662 74C209.662 74.8284 208.991 75.5 208.162 75.5C207.334 75.5 206.662 74.8284 206.662 74C206.662 73.1716 207.334 72.5 208.162 72.5C208.991 72.5 209.662 73.1716 209.662 74Z" fill="#9871F5" stroke="#9871F5"/>
<path d="M222.457 74C222.457 74.8284 221.786 75.5 220.957 75.5C220.129 75.5 219.457 74.8284 219.457 74C219.457 73.1716 220.129 72.5 220.957 72.5C221.786 72.5 222.457 73.1716 222.457 74Z" fill="#9871F5" stroke="#9871F5"/>
<path d="M158.5 84C158.5 84.8284 157.828 85.5 157 85.5C156.172 85.5 155.5 84.8284 155.5 84C155.5 83.1716 156.172 82.5 157 82.5C157.828 82.5 158.5 83.1716 158.5 84Z" fill="#9871F5" stroke="#9871F5"/>
<path d="M171.296 84C171.296 84.8284 170.624 85.5 169.796 85.5C168.967 85.5 168.296 84.8284 168.296 84C168.296 83.1716 168.967 82.5 169.796 82.5C170.624 82.5 171.296 83.1716 171.296 84Z" fill="#9871F5" stroke="#9871F5"/>
<path d="M184.081 84C184.081 84.8284 183.41 85.5 182.581 85.5C181.753 85.5 181.081 84.8284 181.081 84C181.081 83.1716 181.753 82.5 182.581 82.5C183.41 82.5 184.081 83.1716 184.081 84Z" fill="#9871F5" stroke="#9871F5"/>
<path d="M196.876 84C196.876 84.8284 196.205 85.5 195.376 85.5C194.548 85.5 193.876 84.8284 193.876 84C193.876 83.1716 194.548 82.5 195.376 82.5C196.205 82.5 196.876 83.1716 196.876 84Z" fill="#9871F5" stroke="#9871F5"/>
<path d="M209.662 84C209.662 84.8284 208.991 85.5 208.162 85.5C207.334 85.5 206.662 84.8284 206.662 84C206.662 83.1716 207.334 82.5 208.162 82.5C208.991 82.5 209.662 83.1716 209.662 84Z" fill="#9871F5" stroke="#9871F5"/>
<path d="M222.457 84C222.457 84.8284 221.786 85.5 220.957 85.5C220.129 85.5 219.457 84.8284 219.457 84C219.457 83.1716 220.129 82.5 220.957 82.5C221.786 82.5 222.457 83.1716 222.457 84Z" fill="#9871F5" stroke="#9871F5"/>
<path d="M158.5 94C158.5 94.8284 157.828 95.5 157 95.5C156.172 95.5 155.5 94.8284 155.5 94C155.5 93.1716 156.172 92.5 157 92.5C157.828 92.5 158.5 93.1716 158.5 94Z" fill="#9871F5" stroke="#9871F5"/>
<path d="M171.296 94C171.296 94.8284 170.624 95.5 169.796 95.5C168.967 95.5 168.296 94.8284 168.296 94C168.296 93.1716 168.967 92.5 169.796 92.5C170.624 92.5 171.296 93.1716 171.296 94Z" fill="#9871F5" stroke="#9871F5"/>
<path d="M184.081 94C184.081 94.8284 183.41 95.5 182.581 95.5C181.753 95.5 181.081 94.8284 181.081 94C181.081 93.1716 181.753 92.5 182.581 92.5C183.41 92.5 184.081 93.1716 184.081 94Z" fill="#9871F5" stroke="#9871F5"/>
<path d="M196.876 94C196.876 94.8284 196.205 95.5 195.376 95.5C194.548 95.5 193.876 94.8284 193.876 94C193.876 93.1716 194.548 92.5 195.376 92.5C196.205 92.5 196.876 93.1716 196.876 94Z" fill="#9871F5" stroke="#9871F5"/>
<path d="M209.662 94C209.662 94.8284 208.991 95.5 208.162 95.5C207.334 95.5 206.662 94.8284 206.662 94C206.662 93.1716 207.334 92.5 208.162 92.5C208.991 92.5 209.662 93.1716 209.662 94Z" fill="#9871F5" stroke="#9871F5"/>
<path d="M222.457 94C222.457 94.8284 221.786 95.5 220.957 95.5C220.129 95.5 219.457 94.8284 219.457 94C219.457 93.1716 220.129 92.5 220.957 92.5C221.786 92.5 222.457 93.1716 222.457 94Z" fill="#9871F5" stroke="#9871F5"/>
<path d="M-1.52588e-05 96.5C-1.52588e-05 149.795 43.205 193 96.5 193C149.795 193 193 149.795 193 96.5C193 43.205 149.795 -1.52588e-05 96.5 -1.52588e-05H-1.52588e-05V96.5Z" fill="url(#paint0_linear)"/>
<defs>
<linearGradient id="paint0_linear" x1="96.5" y1="193" x2="96.5" y2="7.7486e-06" gradientUnits="userSpaceOnUse">
<stop stop-color="#FFC700"/>
<stop offset="1" stop-color="#FFC700" stop-opacity="0.6"/>
</linearGradient>
</defs>
</svg>
